<svg xmlns="http://www.w3.org/2000/svg" viewBox="0 0 160 160" fill="none">
  <!-- Outer diamond -->
  <rect x="20" y="20" width="120" height="120" rx="4" transform="rotate(45 80 80)" stroke="currentColor" stroke-width="3" fill="none"/>
  <!-- Inner diamond -->
  <rect x="32" y="32" width="96" height="96" rx="2" transform="rotate(45 80 80)" stroke="currentColor" stroke-width="1.2" fill="none" opacity="0.4"/>
  <!-- C letter -->
  <path d="M58 68 C58 58 68 52 78 52 C86 52 92 56 95 62" stroke="currentColor" stroke-width="4" stroke-linecap="round" fill="none"/>
  <path d="M58 92 C58 102 68 108 78 108 C86 108 92 104 95 98" stroke="currentColor" stroke-width="4" stroke-linecap="round" fill="none"/>
  <line x1="58" y1="68" x2="58" y2="92" stroke="currentColor" stroke-width="4" stroke-linecap="round"/>
  <!-- F letter -->
  <line x1="102" y1="52" x2="102" y2="108" stroke="currentColor" stroke-width="4" stroke-linecap="round"/>
  <line x1="102" y1="52" x2="122" y2="52" stroke="currentColor" stroke-width="4" stroke-linecap="round"/>
  <line x1="102" y1="80" x2="118" y2="80" stroke="currentColor" stroke-width="4" stroke-linecap="round"/>
</svg>
